<svg aria-hidden="true" style="position: absolute; width: 0; height: 0; overflow: hidden;" version="1.1"
    xmlns="http://www.w3.org/2000/svg"
    xmlns:xlink="http://www.w3.org/1999/xlink">
    <defs>
        <symbol id="icon-arrow-right" viewBox="0 0 32 32">
            <path stroke-linejoin="round" stroke-linecap="round" stroke-miterlimit="4" stroke-width="2.6667" d="M6.669 16.005h18.672M16.005 6.669l9.336 9.336-9.336 9.336"></path>
        </symbol>
        <symbol id="icon-burger" viewBox="0 0 32 32">
            <path fill="none" stroke="#d41443" style="stroke: var(--color1, #d41443)" stroke-linejoin="miter" stroke-linecap="butt" stroke-miterlimit="4" stroke-width="1.6" d="M0 6.406h32M0 16.006h32M0 25.606h32"></path>
        </symbol>
        <symbol id="icon-close" viewBox="0 0 32 32">
            <path fill="none" stroke="#fff" style="stroke: var(--color2, #fff)" stroke-linejoin="miter" stroke-linecap="butt" stroke-miterlimit="4" stroke-width="2" d="M2.521 2.001l26.968 28.008M2.001 29.489l28.008-26.968"></path>
        </symbol>
        <symbol id="icon-ellipse" viewBox="0 0 32 32">
            <path fill="#d9d9d9" style="fill: var(--color3, #d9d9d9)" d="M30.516 16.011c0 8.158-6.614 14.772-14.772 14.772s-14.772-6.614-14.772-14.772c0-8.158 6.614-14.772 14.772-14.772s14.772 6.614 14.772 14.772z"></path>
        </symbol>
        <symbol id="icon-facebook" viewBox="0 0 32 32">
            <path fill="#fea5bb" style="fill: var(--color4, #fea5bb)" d="M16.003 32.007c8.838 0 16.003-7.165 16.003-16.003s-7.165-16.003-16.003-16.003-16.003 7.165-16.003 16.003 7.165 16.003 16.003 16.003z"></path>
            <path fill="#fff" style="fill: var(--color2, #fff)" d="M20.45 15.984h-2.611v9.621h-3.956v-9.621h-1.881v-3.38h1.881v-2.188c0-1.565 0.739-4.015 3.991-4.015l2.93 0.012v3.282h-2.126c-0.348 0-0.839 0.176-0.839 0.923v1.989h2.956l-0.345 3.378z"></path>
        </symbol>
        <symbol id="icon-github" viewBox="0 0 32 32">
            <path fill="#fea5bb" style="fill: var(--color4, #fea5bb)" d="M32.007 16.003c0 8.838-7.165 16.003-16.003 16.003s-16.003-7.165-16.003-16.003c0-8.838 7.165-16.003 16.003-16.003s16.003 7.165 16.003 16.003z"></path>
            <path fill="#fff" style="fill: var(--color2, #fff)" d="M16.003 6.59c-5.171 0-9.414 4.243-9.414 9.414 0 4.412 3.096 8.421 7.207 9.414v-3.114c-0.408 0.088-0.781 0.091-1.196-0.031-0.556-0.164-1.008-0.535-1.344-1.1-0.214-0.361-0.593-0.753-0.988-0.724l-0.097-1.099c0.856-0.073 1.595 0.522 2.033 1.259 0.196 0.329 0.421 0.521 0.709 0.605 0.278 0.083 0.577 0.043 0.925-0.080 0.088-0.698 0.408-0.958 0.65-1.327-2.452-0.365-3.429-1.666-3.817-2.692-0.514-1.364-0.238-3.067 0.67-4.144 0.018-0.021 0.050-0.075 0.038-0.113-0.417-1.26 0.090-2.301 0.109-2.411 0.481 0.141 0.559-0.143 2.090 0.786l0.264 0.159c0.111 0.066 0.075 0.028 0.186 0.019 0.59-0.166 1.269-0.266 1.97-0.276l0.006-0c0.668 0.008 1.337 0.104 2.002 0.284l0.086 0.009c-0.008-0.002 0.024-0.006 0.075-0.037 1.911-1.158 1.842-0.779 2.355-0.946 0.019 0.111 0.519 1.169 0.106 2.412-0.056 0.171 1.657 1.74 0.708 4.257-0.388 1.026-1.365 2.328-3.816 2.693 0.314 0.48 0.692 0.734 0.69 1.723v3.887c4.11-0.993 7.207-5.002 7.207-9.414 0-5.171-4.243-9.414-9.414-9.414z"></path>
        </symbol>
        <symbol id="icon-home-1" viewBox="0 0 32 32">
            <path fill="#d31342" style="fill: var(--color5, #d31342)" d="M30.135 15.457c0.236-0.253 0.381-0.594 0.381-0.969 0-0.433-0.194-0.822-0.5-1.083l-0.002-0.002-13.639-11.771c-0.295-0.244-0.677-0.393-1.093-0.393-0.43 0-0.823 0.158-1.125 0.419l0.002-0.002-13.684 12.374c-0.292 0.26-0.475 0.637-0.475 1.057 0 0.388 0.156 0.739 0.409 0.994l-0-0 0.345 0.352c0.566 0.586 1.487 0.655 2.053 0.155l1.022-0.904v13.228c0.006 0.812 0.665 1.467 1.477 1.467 0.004 0 0.009-0 0.013-0h5.332c0.004 0 0.008 0 0.012 0 0.812 0 1.472-0.656 1.477-1.467v-9.255h6.805v9.255c-0.012 0.812 0.576 1.467 1.398 1.467h5.653c0.003 0 0.006 0 0.010 0 0.812 0 1.472-0.656 1.477-1.467v-13.042l0.633 0.547c0.347 0.3 1.078 0.059 1.63-0.542l0.389-0.419z"></path>
        </symbol>
        <symbol id="icon-telegram" viewBox="0 0 32 32">
            <path fill="#fea5bb" style="fill: var(--color4, #fea5bb)" d="M32.007 16.003c0 8.838-7.165 16.003-16.003 16.003s-16.003-7.165-16.003-16.003c0-8.838 7.165-16.003 16.003-16.003s16.003 7.165 16.003 16.003z"></path>
            <path fill="#fff" style="fill: var(--color2, #fff)" d="M12.869 18.379l-0.317 4.17c0.455 0 0.651-0.183 0.888-0.401l2.13-1.902 4.415 3.019c0.81 0.421 1.381 0.199 1.6-0.696l2.898-12.676c0.258-1.117-0.433-1.554-1.221-1.28l-17.036 6.087c-1.163 0.422-1.146 1.026-0.198 1.301l4.356 1.264 10.116-5.908c0.476-0.295 0.909-0.132 0.554 0.163l-8.183 6.858z"></path>
        </symbol>
        <symbol id="arrow-buy" viewBox="0 0 6 10">
            <path d="M1 1l4 4-4 4" stroke="#D41443" stroke-width="2" stroke-linecap="round" stroke-linejoin="round"/>
        </symbol>
        <symbol id="icon-symbolk" viewBox="0 0 54 40">
           <path d="M40.0179 2.59234e-06C42.4286 2.80309e-06 44.7054 0.650413 46.8482 1.95122C48.9911 3.25204 50.7321 5.12196 52.0714 7.56098C53.3571 10 54 12.8726 54 16.1789C54 19.4851 53.1964 22.71 51.5893 25.8537C51.0536 26.9919 50.0893 28.4553 48.6964 30.2439C47.25 32.0325 45.9107 33.5772 44.6786 34.878L39.6161 40L36 33.9837C38.5179 32.4119 40.7411 30.4607 42.6696 28.1301C44.5982 25.8537 45.5625 23.7669 45.5625 21.8699C45.5625 20.8943 45.3482 20.1084 44.9196 19.5122C43.0446 20.8672 40.9554 21.5447 38.6518 21.5447C36.9911 21.5447 35.4107 21.0298 33.9107 20C32.3571 19.0244 31.125 17.7236 30.2143 16.0976C29.25 14.5257 28.7679 12.8997 28.7679 11.2195C28.7679 9.32249 29.3304 7.50678 30.4554 5.77236C31.5268 4.03794 32.9464 2.62873 34.7143 1.54472C36.4286 0.51491 38.1964 2.43311e-06 40.0179 2.59234e-06ZM11.1696 7.03482e-08C13.5804 2.81099e-07 15.8571 0.65041 18 1.95122C20.1429 3.25203 21.8839 5.12195 23.2232 7.56098C24.5089 10 25.1518 12.8726 25.1518 16.1789C25.1518 18.5095 24.8571 20.5962 24.2679 22.439C23.6786 24.336 22.6607 26.3144 21.2143 28.374C19.8214 30.3252 18.5089 31.9512 17.2768 33.252C16.0446 34.607 13.9018 36.8564 10.8482 40L7.23214 33.9837C9.75 32.4119 11.9732 30.4607 13.9018 28.1301C15.8304 25.8537 16.7946 23.7669 16.7946 21.8699C16.7946 20.8943 16.5804 20.1084 16.1518 19.5122C14.2768 20.8672 12.1875 21.5447 9.88393 21.5447C8.22321 21.5447 6.64285 21.0298 5.14285 20C3.58928 19.0244 2.35714 17.7236 1.44643 16.0976C0.482142 14.5257 -1.44552e-06 12.8997 -1.29863e-06 11.2195C-1.13278e-06 9.32249 0.535712 7.50677 1.60714 5.77236C2.67857 4.03794 4.09821 2.62873 5.86607 1.54472C7.58036 0.514908 9.34821 -8.88862e-08 11.1696 7.03482e-08Z" fill="#E1E1E1"/>
        </symbol>
        <symbol id="icon-arrow-riht" viewBox="0 0 96 96">
           <path  d="M12,52h62.344L53.172,73.172c-1.562,1.562-1.562,4.094,0,5.656c1.562,1.562,4.095,1.562,5.657,0l28-28
			c1.562-1.562,1.562-4.095,0-5.656l-28-28C58.048,16.391,57.024,16,56,16c-1.023,0-2.047,0.391-2.828,1.172
			c-1.562,1.562-1.562,4.095,0,5.656L74.344,44H12c-2.209,0-4,1.791-4,4S9.791,52,12,52z"/>
        </symbol>
    </defs>
</svg>
